<svg width="28" height="26" viewBox="0 0 28 26" fill="none" xmlns="http://www.w3.org/2000/svg">
<g id="Group 3">
<path id="Union" fill-rule="evenodd" clip-rule="evenodd" d="M6.13874 8.83851C4.08891 9.98726 3.38659 12.5315 4.57006 14.5212C5.23184 15.6338 6.25877 16.3847 7.36003 16.6487C5.84281 17.9289 5.42147 20.1127 6.46427 21.8659C7.64774 23.8556 10.2688 24.5373 12.3187 23.3885L22.5228 17.67C24.5726 16.5212 25.2749 13.977 24.0914 11.9873C23.4385 10.8896 22.348 10.19 21.1572 9.97625C22.7911 8.7154 23.2723 6.45021 22.1972 4.64266C21.0138 2.65296 18.3926 1.97124 16.3428 3.11999L6.13874 8.83851ZM18.2397 10.4632L20.0928 9.42466C21.6302 8.56309 22.1569 6.65493 21.2693 5.16266C20.3817 3.67039 18.4159 3.1591 16.8785 4.02066L6.67445 9.73918C5.13708 10.6007 4.61034 12.5089 5.49794 14.0012C6.38554 15.4935 8.03297 16.1832 9.4248 15.4032L9.96051 16.3038L8.56866 17.0839C7.0313 17.9454 6.50455 19.8536 7.39215 21.3459C8.27975 22.8381 10.2456 23.3494 11.783 22.4879L21.987 16.7693C23.5244 15.9078 24.0511 13.9996 23.1635 12.5073C22.2759 11.0151 20.3101 10.5038 18.7728 11.3653L18.237 10.4647C18.2379 10.4642 18.2388 10.4637 18.2397 10.4632Z" fill="black"/>
<path id="Polygon 1" d="M12.2781 11.635C12.2781 11.2573 12.6937 11.0243 13.0307 11.2132L17.3163 13.6149C17.6571 13.8059 17.6619 14.2839 17.3249 14.4728L13.0392 16.8746C12.7022 17.0634 12.2781 16.8204 12.2781 16.4385L12.2781 11.635Z" fill="black"/>
</g>
</svg>
